<svg width="60" height="89" viewBox="0 0 84 89" fill="none" xmlns="http://www.w3.org/2000/svg">
<path id="Github_Vector" d="M42 0C18.795 0 0 20.4174 0 45.6256C0 65.8149 12.0225 82.8675 28.7175 88.9128C30.8175 89.3121 31.605 87.9433 31.605 86.7456C31.605 85.662 31.5525 82.069 31.5525 78.2479C21 80.358 18.27 75.4533 17.43 72.8869C16.9575 71.5751 14.91 67.5258 13.125 66.4422C11.655 65.5868 9.555 63.4766 13.0725 63.4196C16.38 63.3625 18.7425 66.7274 19.53 68.0962C23.31 74.997 29.3475 73.058 31.7625 71.8603C32.13 68.8946 33.2325 66.8985 34.44 65.7579C25.095 64.6172 15.33 60.682 15.33 43.2302C15.33 38.2685 16.9575 34.1621 19.635 30.9684C19.215 29.8277 17.745 25.1511 20.055 18.8776C20.055 18.8776 23.5725 17.6799 31.605 23.5542C34.965 22.5276 38.535 22.0143 42.105 22.0143C45.675 22.0143 49.245 22.5276 52.605 23.5542C60.6375 17.6229 64.155 18.8776 64.155 18.8776C66.465 25.1511 64.995 29.8277 64.575 30.9684C67.2525 34.1621 68.88 38.2114 68.88 43.2302C68.88 60.739 59.0625 64.6172 49.7175 65.7579C51.24 67.1837 52.5525 69.9212 52.5525 74.1986C52.5525 80.301 52.5 85.2058 52.5 86.7456C52.5 87.9433 53.2875 89.3691 55.3875 88.9128C63.7266 85.8574 70.973 80.0368 76.1061 72.2711C81.2392 64.5054 84.0001 55.1859 84 45.6256C84 20.4174 65.205 0 42 0Z" fill="black"/>
</svg>
