<svg width="60" height="89" viewBox="0 0 78 81" fill="none" xmlns="http://www.w3.org/2000/svg">
<g id="Linkedin" clip-path="url(#clip0_311_329)">
<path id="Linkedin_ Vector" d="M0 5.80163C0 2.59706 2.56425 0 5.72812 0H72.2719C75.4357 0 78 2.59706 78 5.80163V75.1984C78 78.4029 75.4357 81 72.2719 81H5.72812C2.56425 81 0 78.4029 0 75.1984V5.80163ZM24.0971 67.8071V31.2306H12.3923V67.8071H24.0971ZM18.2471 26.2339C22.3275 26.2339 24.8674 23.4293 24.8674 19.9159C24.7942 16.3266 22.3324 13.5979 18.3251 13.5979C14.3179 13.5979 11.7 16.3316 11.7 19.9159C11.7 23.4293 14.2399 26.2339 18.1691 26.2339H18.2471ZM42.1736 67.8071V47.3799C42.1736 46.2864 42.2516 45.1929 42.5636 44.4133C43.407 42.2314 45.3326 39.9684 48.5696 39.9684C52.806 39.9684 54.4976 43.3198 54.4976 48.2406V67.8071H66.2025V46.8281C66.2025 35.5894 60.4305 30.3649 52.728 30.3649C46.5173 30.3649 43.7336 33.9086 42.1736 36.4044V36.531H42.0956L42.1736 36.4044V31.2306H30.4736C30.6199 34.6629 30.4736 67.8071 30.4736 67.8071H42.1736Z" fill="black"/>
</g>
<defs>
<clipPath id="clip0_311_329">
<rect width="78" height="81" fill="white"/>
</clipPath>
</defs>
</svg>
